<svg xmlns="http://www.w3.org/2000/svg" viewBox="0 0 24 24" width="32" height="32" fill="none">
  <!-- Botanical Leaf -->
  <path d="M3 21 C 3 11, 9 4, 17 4 C 17 12, 11 21, 3 21 Z" fill="#10b981" fill-opacity="0.3" stroke="#10b981" stroke-width="1.8" stroke-linejoin="round"/>
  <path d="M3 21 Q 9 15 17 4" stroke="#059669" stroke-width="1.5" stroke-linecap="round"/>
  <path d="M7 16 Q 10 14.5 12 16.5" stroke="#059669" stroke-width="1.2" stroke-linecap="round"/>
  <path d="M10 11.5 Q 13 10 15 12" stroke="#059669" stroke-width="1.2" stroke-linecap="round"/>

  <!-- Magnifying Lens over Leaf -->
  <circle cx="14" cy="9" r="6" fill="#071810" fill-opacity="0.9" stroke="#34d399" stroke-width="2"/>
  <path d="M11 6.8 A 4 4 0 0 1 14.2 4.8" stroke="#6ee7b7" stroke-width="1.3" stroke-linecap="round"/>
  <path d="M11.5 11.5 Q 14 9 16.5 6.5" stroke="#34d399" stroke-width="1.8" stroke-linecap="round"/>

  <!-- Magnifying Handle -->
  <path d="M18.2 13.2 L 22 17" stroke="#34d399" stroke-width="2.8" stroke-linecap="round"/>
  <path d="M18.8 13.8 L 21.4 16.4" stroke="#10b981" stroke-width="1.5" stroke-linecap="round"/>
</svg>